<mxfile host="app.diagrams.net" agent="Mozilla/5.0 (Windows NT 10.0; Win64; x64) AppleWebKit/537.36 (KHTML, like Gecko) Chrome/140.0.0.0 Safari/537.36" version="28.2.3">
  <diagram name="Página-1" id="ZoH1qGiTkQQqBr2M1ZjS">
    <mxGraphModel dx="3021" dy="2386" grid="1" gridSize="10" guides="1" tooltips="1" connect="1" arrows="1" fold="1" page="1" pageScale="1" pageWidth="827" pageHeight="1169" math="0" shadow="0">
      <root>
        <mxCell id="0" />
        <mxCell id="1" parent="0" />
        <mxCell id="7PJYwHTWWEtQcOT2h8YD-60" value="" style="rounded=0;whiteSpace=wrap;html=1;" parent="1" vertex="1">
          <mxGeometry x="-312.5" y="-30" width="1533.5" height="1470" as="geometry" />
        </mxCell>
        <mxCell id="7PJYwHTWWEtQcOT2h8YD-61" value="alt" style="shape=umlFrame;whiteSpace=wrap;html=1;pointerEvents=0;width=30;height=15;" parent="1" vertex="1">
          <mxGeometry x="-300" y="200" width="1490" height="600" as="geometry" />
        </mxCell>
        <mxCell id="7PJYwHTWWEtQcOT2h8YD-53" value="" style="endArrow=open;html=1;rounded=0;dashed=1;entryX=0.25;entryY=0;entryDx=0;entryDy=0;exitX=0.25;exitY=1;exitDx=0;exitDy=0;endFill=0;" parent="1" edge="1">
          <mxGeometry width="50" height="50" relative="1" as="geometry">
            <mxPoint x="435" y="164" as="sourcePoint" />
            <mxPoint x="232.00000000000023" y="163.6249999999999" as="targetPoint" />
            <Array as="points" />
          </mxGeometry>
        </mxCell>
        <mxCell id="7PJYwHTWWEtQcOT2h8YD-165" value="" style="endArrow=open;html=1;rounded=0;dashed=1;entryX=0.5;entryY=0;entryDx=0;entryDy=0;exitX=0.5;exitY=1;exitDx=0;exitDy=0;endFill=0;" parent="1" edge="1" source="7PJYwHTWWEtQcOT2h8YD-198">
          <mxGeometry width="50" height="50" relative="1" as="geometry">
            <mxPoint x="982" y="637.9999999999998" as="sourcePoint" />
            <mxPoint x="230.70500000000015" y="638.99" as="targetPoint" />
            <Array as="points" />
          </mxGeometry>
        </mxCell>
        <mxCell id="7PJYwHTWWEtQcOT2h8YD-6" value="" style="endArrow=none;dashed=1;html=1;dashPattern=1 3;strokeWidth=2;rounded=0;exitX=0.5;exitY=0;exitDx=0;exitDy=0;entryX=0.5;entryY=1;entryDx=0;entryDy=0;" parent="1" source="7PJYwHTWWEtQcOT2h8YD-3" target="7PJYwHTWWEtQcOT2h8YD-2" edge="1">
          <mxGeometry width="50" height="50" relative="1" as="geometry">
            <mxPoint x="20" y="460" as="sourcePoint" />
            <mxPoint x="70" y="410" as="targetPoint" />
          </mxGeometry>
        </mxCell>
        <mxCell id="7PJYwHTWWEtQcOT2h8YD-15" value="" style="rounded=0;whiteSpace=wrap;html=1;rotation=90;" parent="1" vertex="1">
          <mxGeometry x="-47.18" y="149.69" width="84.37" height="10" as="geometry" />
        </mxCell>
        <mxCell id="7PJYwHTWWEtQcOT2h8YD-26" value="" style="endArrow=open;html=1;rounded=0;exitX=0.36;exitY=0.79;exitDx=0;exitDy=0;exitPerimeter=0;endFill=0;dashed=1;" parent="1" edge="1">
          <mxGeometry width="50" height="50" relative="1" as="geometry">
            <mxPoint x="224.10000000000014" y="168.6799999999996" as="sourcePoint" />
            <mxPoint y="167" as="targetPoint" />
            <Array as="points" />
          </mxGeometry>
        </mxCell>
        <mxCell id="7PJYwHTWWEtQcOT2h8YD-14" value="" style="endArrow=none;dashed=1;html=1;dashPattern=1 3;strokeWidth=2;rounded=0;exitX=0.5;exitY=0;exitDx=0;exitDy=0;entryX=0.5;entryY=1;entryDx=0;entryDy=0;" parent="1" source="7PJYwHTWWEtQcOT2h8YD-13" target="7PJYwHTWWEtQcOT2h8YD-12" edge="1">
          <mxGeometry width="50" height="50" relative="1" as="geometry">
            <mxPoint x="250" y="460" as="sourcePoint" />
            <mxPoint x="300" y="410" as="targetPoint" />
          </mxGeometry>
        </mxCell>
        <mxCell id="7PJYwHTWWEtQcOT2h8YD-18" value="" style="rounded=0;whiteSpace=wrap;html=1;rotation=90;" parent="1" vertex="1">
          <mxGeometry x="204.7" y="146.81" width="44.62" height="10" as="geometry" />
        </mxCell>
        <mxCell id="7PJYwHTWWEtQcOT2h8YD-2" value=":Interface da homepage" style="rounded=1;whiteSpace=wrap;html=1;" parent="1" vertex="1">
          <mxGeometry x="-60" y="30" width="110" height="40" as="geometry" />
        </mxCell>
        <mxCell id="7PJYwHTWWEtQcOT2h8YD-3" value=":interface da homepage" style="rounded=1;whiteSpace=wrap;html=1;" parent="1" vertex="1">
          <mxGeometry x="-58" y="1363" width="110" height="40" as="geometry" />
        </mxCell>
        <mxCell id="7PJYwHTWWEtQcOT2h8YD-7" value=":Participante" style="shape=umlActor;verticalLabelPosition=bottom;verticalAlign=top;html=1;outlineConnect=0;" parent="1" vertex="1">
          <mxGeometry x="-254" y="10" width="30" height="60" as="geometry" />
        </mxCell>
        <mxCell id="7PJYwHTWWEtQcOT2h8YD-8" value="Participante" style="shape=umlActor;verticalLabelPosition=bottom;verticalAlign=top;html=1;outlineConnect=0;" parent="1" vertex="1">
          <mxGeometry x="-256" y="1344" width="30" height="60" as="geometry" />
        </mxCell>
        <mxCell id="7PJYwHTWWEtQcOT2h8YD-9" value="" style="endArrow=none;dashed=1;html=1;dashPattern=1 3;strokeWidth=2;rounded=0;exitX=0.5;exitY=0.5;exitDx=0;exitDy=0;exitPerimeter=0;entryX=0.5;entryY=0.5;entryDx=0;entryDy=0;entryPerimeter=0;" parent="1" source="7PJYwHTWWEtQcOT2h8YD-7" target="7PJYwHTWWEtQcOT2h8YD-8" edge="1">
          <mxGeometry width="50" height="50" relative="1" as="geometry">
            <mxPoint x="-174" y="390" as="sourcePoint" />
            <mxPoint x="-124" y="340" as="targetPoint" />
          </mxGeometry>
        </mxCell>
        <mxCell id="7PJYwHTWWEtQcOT2h8YD-11" value="1.ExibirEvento(&lt;span style=&quot;color: light-dark(rgb(0, 0, 0), rgb(255, 255, 255)); background-color: transparent;&quot;&gt;)&lt;/span&gt;" style="text;html=1;align=center;verticalAlign=middle;whiteSpace=wrap;rounded=0;" parent="1" vertex="1">
          <mxGeometry x="-180" y="100" width="60" height="30" as="geometry" />
        </mxCell>
        <mxCell id="7PJYwHTWWEtQcOT2h8YD-12" value=":Controller" style="rounded=1;whiteSpace=wrap;html=1;" parent="1" vertex="1">
          <mxGeometry x="171" y="30" width="110" height="40" as="geometry" />
        </mxCell>
        <mxCell id="7PJYwHTWWEtQcOT2h8YD-13" value=":Controller" style="rounded=1;whiteSpace=wrap;html=1;" parent="1" vertex="1">
          <mxGeometry x="173" y="1363" width="110" height="40" as="geometry" />
        </mxCell>
        <mxCell id="7PJYwHTWWEtQcOT2h8YD-22" value="2.ExibirEvento&lt;span style=&quot;background-color: transparent; color: light-dark(rgb(0, 0, 0), rgb(255, 255, 255));&quot;&gt;(event_id&lt;/span&gt;&lt;span style=&quot;background-color: transparent; color: light-dark(rgb(0, 0, 0), rgb(255, 255, 255));&quot;&gt;)&lt;/span&gt;" style="text;html=1;align=center;verticalAlign=middle;whiteSpace=wrap;rounded=0;" parent="1" vertex="1">
          <mxGeometry x="80" y="107" width="60" height="30" as="geometry" />
        </mxCell>
        <mxCell id="7PJYwHTWWEtQcOT2h8YD-10" value="" style="endArrow=classic;html=1;rounded=0;" parent="1" edge="1">
          <mxGeometry width="50" height="50" relative="1" as="geometry">
            <mxPoint x="-240" y="120" as="sourcePoint" />
            <mxPoint x="-10" y="120" as="targetPoint" />
          </mxGeometry>
        </mxCell>
        <mxCell id="7PJYwHTWWEtQcOT2h8YD-24" value="" style="endArrow=classic;html=1;rounded=0;exitX=0.194;exitY=-0.034;exitDx=0;exitDy=0;exitPerimeter=0;" parent="1" source="7PJYwHTWWEtQcOT2h8YD-15" edge="1">
          <mxGeometry width="50" height="50" relative="1" as="geometry">
            <mxPoint x="10" y="130" as="sourcePoint" />
            <mxPoint x="220" y="130" as="targetPoint" />
            <Array as="points">
              <mxPoint x="140" y="130" />
            </Array>
          </mxGeometry>
        </mxCell>
        <mxCell id="7PJYwHTWWEtQcOT2h8YD-35" value="4.Retorno com a tela do evento&lt;span style=&quot;background-color: transparent; color: light-dark(rgb(0, 0, 0), rgb(255, 255, 255));&quot;&gt;&amp;nbsp;&lt;/span&gt;" style="text;html=1;align=center;verticalAlign=middle;whiteSpace=wrap;rounded=0;" parent="1" vertex="1">
          <mxGeometry x="20" y="160" width="180" height="30" as="geometry" />
        </mxCell>
        <mxCell id="7PJYwHTWWEtQcOT2h8YD-36" value="" style="endArrow=open;html=1;rounded=0;dashed=1;endFill=0;" parent="1" edge="1">
          <mxGeometry width="50" height="50" relative="1" as="geometry">
            <mxPoint x="-10" y="181" as="sourcePoint" />
            <mxPoint x="-240" y="181" as="targetPoint" />
            <Array as="points" />
          </mxGeometry>
        </mxCell>
        <mxCell id="7PJYwHTWWEtQcOT2h8YD-37" value="5.Exibição do evento com detalhes" style="text;html=1;align=center;verticalAlign=middle;whiteSpace=wrap;rounded=0;" parent="1" vertex="1">
          <mxGeometry x="-217" y="175" width="200" height="30" as="geometry" />
        </mxCell>
        <mxCell id="7PJYwHTWWEtQcOT2h8YD-39" value="" style="endArrow=none;dashed=1;html=1;dashPattern=1 3;strokeWidth=2;rounded=0;exitX=0.5;exitY=0.125;exitDx=0;exitDy=0;entryX=0.5;entryY=1;entryDx=0;entryDy=0;exitPerimeter=0;" parent="1" source="7PJYwHTWWEtQcOT2h8YD-42" edge="1">
          <mxGeometry width="50" height="50" relative="1" as="geometry">
            <mxPoint x="441" y="814" as="sourcePoint" />
            <mxPoint x="439" y="69" as="targetPoint" />
          </mxGeometry>
        </mxCell>
        <mxCell id="7PJYwHTWWEtQcOT2h8YD-40" value="" style="rounded=0;whiteSpace=wrap;html=1;rotation=90;" parent="1" vertex="1">
          <mxGeometry x="415" y="150" width="50" height="10" as="geometry" />
        </mxCell>
        <mxCell id="7PJYwHTWWEtQcOT2h8YD-41" value="Evento:Event" style="rounded=1;whiteSpace=wrap;html=1;" parent="1" vertex="1">
          <mxGeometry x="384" y="30" width="110" height="40" as="geometry" />
        </mxCell>
        <mxCell id="7PJYwHTWWEtQcOT2h8YD-42" value="Evento:Event" style="rounded=1;whiteSpace=wrap;html=1;" parent="1" vertex="1">
          <mxGeometry x="386" y="1363" width="110" height="40" as="geometry" />
        </mxCell>
        <mxCell id="7PJYwHTWWEtQcOT2h8YD-43" value="3&lt;span style=&quot;background-color: transparent; color: light-dark(rgb(0, 0, 0), rgb(255, 255, 255));&quot;&gt;.ExibirDescrição(even_id&lt;/span&gt;&lt;span style=&quot;background-color: transparent; color: light-dark(rgb(0, 0, 0), rgb(255, 255, 255));&quot;&gt;)&lt;/span&gt;" style="text;html=1;align=center;verticalAlign=middle;whiteSpace=wrap;rounded=0;" parent="1" vertex="1">
          <mxGeometry x="300" y="120" width="60" height="30" as="geometry" />
        </mxCell>
        <mxCell id="7PJYwHTWWEtQcOT2h8YD-44" value="" style="endArrow=classic;html=1;rounded=0;" parent="1" edge="1">
          <mxGeometry width="50" height="50" relative="1" as="geometry">
            <mxPoint x="230" y="141" as="sourcePoint" />
            <mxPoint x="435" y="140" as="targetPoint" />
            <Array as="points">
              <mxPoint x="360" y="141" />
            </Array>
          </mxGeometry>
        </mxCell>
        <mxCell id="7PJYwHTWWEtQcOT2h8YD-54" value="4.Descrição do evento e quantas &quot;vagas possui&quot;" style="text;html=1;align=center;verticalAlign=middle;whiteSpace=wrap;rounded=0;" parent="1" vertex="1">
          <mxGeometry x="256" y="156.75" width="140" height="30" as="geometry" />
        </mxCell>
        <mxCell id="7PJYwHTWWEtQcOT2h8YD-63" value="[Participar do evento]" style="text;html=1;align=center;verticalAlign=middle;whiteSpace=wrap;rounded=0;" parent="1" vertex="1">
          <mxGeometry x="-256" y="200" width="160" height="30" as="geometry" />
        </mxCell>
        <mxCell id="7PJYwHTWWEtQcOT2h8YD-65" value="" style="endArrow=classic;html=1;rounded=0;" parent="1" edge="1">
          <mxGeometry width="50" height="50" relative="1" as="geometry">
            <mxPoint x="-240" y="245" as="sourcePoint" />
            <mxPoint x="-10" y="245" as="targetPoint" />
          </mxGeometry>
        </mxCell>
        <mxCell id="7PJYwHTWWEtQcOT2h8YD-66" value="" style="rounded=0;whiteSpace=wrap;html=1;rotation=90;" parent="1" vertex="1">
          <mxGeometry x="-89.8" y="190.31" width="169.59" height="10" as="geometry" />
        </mxCell>
        <mxCell id="7PJYwHTWWEtQcOT2h8YD-68" value="6.Participar(ecent_id)" style="text;html=1;align=center;verticalAlign=middle;whiteSpace=wrap;rounded=0;" parent="1" vertex="1">
          <mxGeometry x="-180" y="221" width="60" height="30" as="geometry" />
        </mxCell>
        <mxCell id="7PJYwHTWWEtQcOT2h8YD-73" value="alt" style="shape=umlFrame;whiteSpace=wrap;html=1;pointerEvents=0;width=40;height=15;" parent="1" vertex="1">
          <mxGeometry x="-290" y="302" width="1170" height="178" as="geometry" />
        </mxCell>
        <mxCell id="7PJYwHTWWEtQcOT2h8YD-75" value="[Participante não logado]" style="text;html=1;align=center;verticalAlign=middle;whiteSpace=wrap;rounded=0;" parent="1" vertex="1">
          <mxGeometry x="-247" y="297.37" width="160" height="30" as="geometry" />
        </mxCell>
        <mxCell id="7PJYwHTWWEtQcOT2h8YD-86" value="[Evento lotado]" style="text;html=1;align=center;verticalAlign=middle;whiteSpace=wrap;rounded=0;" parent="1" vertex="1">
          <mxGeometry x="-241" y="245" width="100" height="30" as="geometry" />
        </mxCell>
        <mxCell id="7PJYwHTWWEtQcOT2h8YD-88" value="" style="endArrow=none;dashed=1;html=1;strokeWidth=1;rounded=0;entryX=0.942;entryY=0.931;entryDx=0;entryDy=0;entryPerimeter=0;endFill=0;startArrow=open;startFill=0;" parent="1" target="7PJYwHTWWEtQcOT2h8YD-66" edge="1">
          <mxGeometry width="50" height="50" relative="1" as="geometry">
            <mxPoint x="-240" y="270" as="sourcePoint" />
            <mxPoint x="100" y="300" as="targetPoint" />
          </mxGeometry>
        </mxCell>
        <mxCell id="7PJYwHTWWEtQcOT2h8YD-93" value="" style="endArrow=classic;html=1;rounded=0;exitX=0.708;exitY=0.32;exitDx=0;exitDy=0;exitPerimeter=0;entryX=0.381;entryY=-0.166;entryDx=0;entryDy=0;entryPerimeter=0;" parent="1" target="7PJYwHTWWEtQcOT2h8YD-91" edge="1">
          <mxGeometry width="50" height="50" relative="1" as="geometry">
            <mxPoint x="-3.2000000000000455" y="327.36920000000015" as="sourcePoint" />
            <mxPoint x="-1.599999999999909" y="366.4166000000001" as="targetPoint" />
            <Array as="points">
              <mxPoint x="30" y="327" />
              <mxPoint x="30" y="354" />
            </Array>
          </mxGeometry>
        </mxCell>
        <mxCell id="7PJYwHTWWEtQcOT2h8YD-89" value="7.Exibir mensagem de erro devido evento lotado" style="text;html=1;align=center;verticalAlign=middle;whiteSpace=wrap;rounded=0;" parent="1" vertex="1">
          <mxGeometry x="-213" y="264" width="170" height="40" as="geometry" />
        </mxCell>
        <mxCell id="7PJYwHTWWEtQcOT2h8YD-91" value="" style="rounded=0;whiteSpace=wrap;html=1;rotation=90;" parent="1" vertex="1">
          <mxGeometry x="-327.48" y="427.39" width="644.97" height="10" as="geometry" />
        </mxCell>
        <mxCell id="7PJYwHTWWEtQcOT2h8YD-85" value="alt" style="shape=umlFrame;whiteSpace=wrap;html=1;pointerEvents=0;width=30;height=15;" parent="1" vertex="1">
          <mxGeometry x="-290" y="251" width="300" height="49" as="geometry" />
        </mxCell>
        <mxCell id="7PJYwHTWWEtQcOT2h8YD-92" value="7.IniciarCadastro&lt;span style=&quot;background-color: transparent; color: light-dark(rgb(0, 0, 0), rgb(255, 255, 255));&quot;&gt;(&lt;/span&gt;&lt;span style=&quot;background-color: transparent; color: light-dark(rgb(0, 0, 0), rgb(255, 255, 255));&quot;&gt;)&lt;/span&gt;" style="text;html=1;align=center;verticalAlign=middle;whiteSpace=wrap;rounded=0;" parent="1" vertex="1">
          <mxGeometry x="52" y="325.31" width="60" height="30" as="geometry" />
        </mxCell>
        <mxCell id="7PJYwHTWWEtQcOT2h8YD-94" value="" style="rounded=0;whiteSpace=wrap;html=1;rotation=90;" parent="1" vertex="1">
          <mxGeometry x="208.31" y="441.66" width="37.4" height="10" as="geometry" />
        </mxCell>
        <mxCell id="7PJYwHTWWEtQcOT2h8YD-103" value="" style="endArrow=none;dashed=1;html=1;strokeWidth=1;rounded=0;entryX=0.942;entryY=0.931;entryDx=0;entryDy=0;entryPerimeter=0;endFill=0;startArrow=open;startFill=0;" parent="1" edge="1">
          <mxGeometry width="50" height="50" relative="1" as="geometry">
            <mxPoint x="-242" y="366" as="sourcePoint" />
            <mxPoint x="-11" y="366" as="targetPoint" />
          </mxGeometry>
        </mxCell>
        <mxCell id="7PJYwHTWWEtQcOT2h8YD-104" value="8&lt;span style=&quot;background-color: transparent; color: light-dark(rgb(0, 0, 0), rgb(255, 255, 255));&quot;&gt;.Exibir tela de login&lt;/span&gt;" style="text;html=1;align=center;verticalAlign=middle;whiteSpace=wrap;rounded=0;" parent="1" vertex="1">
          <mxGeometry x="-215" y="338" width="170" height="40" as="geometry" />
        </mxCell>
        <mxCell id="7PJYwHTWWEtQcOT2h8YD-105" value="" style="endArrow=classic;html=1;rounded=0;" parent="1" edge="1">
          <mxGeometry width="50" height="50" relative="1" as="geometry">
            <mxPoint x="-240" y="414" as="sourcePoint" />
            <mxPoint x="-10" y="414" as="targetPoint" />
          </mxGeometry>
        </mxCell>
        <mxCell id="7PJYwHTWWEtQcOT2h8YD-106" value="9.PreencherDados(user_name,email,&lt;br&gt;fone,password,birthday)" style="text;html=1;align=center;verticalAlign=middle;whiteSpace=wrap;rounded=0;" parent="1" vertex="1">
          <mxGeometry x="-156" y="371" width="50" height="51" as="geometry" />
        </mxCell>
        <mxCell id="7PJYwHTWWEtQcOT2h8YD-108" value="10.CriarUsuario&lt;span style=&quot;background-color: transparent; color: light-dark(rgb(0, 0, 0), rgb(255, 255, 255));&quot;&gt;(&lt;/span&gt;user_name,email,&lt;br&gt;fone,password,birthday&lt;span style=&quot;background-color: transparent; color: light-dark(rgb(0, 0, 0), rgb(255, 255, 255));&quot;&gt;)&lt;/span&gt;" style="text;html=1;align=center;verticalAlign=middle;whiteSpace=wrap;rounded=0;" parent="1" vertex="1">
          <mxGeometry x="80" y="400" width="60" height="30" as="geometry" />
        </mxCell>
        <mxCell id="7PJYwHTWWEtQcOT2h8YD-109" value="" style="endArrow=classic;html=1;rounded=0;exitX=0.194;exitY=-0.034;exitDx=0;exitDy=0;exitPerimeter=0;" parent="1" edge="1">
          <mxGeometry width="50" height="50" relative="1" as="geometry">
            <mxPoint y="429" as="sourcePoint" />
            <mxPoint x="220" y="430" as="targetPoint" />
            <Array as="points">
              <mxPoint x="140" y="430" />
            </Array>
          </mxGeometry>
        </mxCell>
        <mxCell id="7PJYwHTWWEtQcOT2h8YD-112" value="" style="endArrow=none;dashed=1;html=1;dashPattern=1 3;strokeWidth=2;rounded=0;exitX=0.5;exitY=0.125;exitDx=0;exitDy=0;entryX=0.5;entryY=1;entryDx=0;entryDy=0;exitPerimeter=0;" parent="1" source="7PJYwHTWWEtQcOT2h8YD-114" edge="1">
          <mxGeometry width="50" height="50" relative="1" as="geometry">
            <mxPoint x="637" y="814" as="sourcePoint" />
            <mxPoint x="635" y="69" as="targetPoint" />
          </mxGeometry>
        </mxCell>
        <mxCell id="7PJYwHTWWEtQcOT2h8YD-113" value=":User" style="rounded=1;whiteSpace=wrap;html=1;" parent="1" vertex="1">
          <mxGeometry x="580" y="30" width="110" height="40" as="geometry" />
        </mxCell>
        <mxCell id="7PJYwHTWWEtQcOT2h8YD-114" value=":User" style="rounded=1;whiteSpace=wrap;html=1;" parent="1" vertex="1">
          <mxGeometry x="582" y="1363" width="110" height="40" as="geometry" />
        </mxCell>
        <mxCell id="7PJYwHTWWEtQcOT2h8YD-115" value="" style="rounded=0;whiteSpace=wrap;html=1;rotation=90;" parent="1" vertex="1">
          <mxGeometry x="614.58" y="447.42" width="40.83" height="10" as="geometry" />
        </mxCell>
        <mxCell id="7PJYwHTWWEtQcOT2h8YD-117" value="11.CriarUsuario&lt;span style=&quot;color: light-dark(rgb(0, 0, 0), rgb(255, 255, 255)); background-color: transparent;&quot;&gt;(&lt;/span&gt;user_name,email,fone,password,birthday&lt;span style=&quot;color: light-dark(rgb(0, 0, 0), rgb(255, 255, 255)); background-color: transparent;&quot;&gt;)&lt;/span&gt;" style="text;html=1;align=center;verticalAlign=middle;whiteSpace=wrap;rounded=0;" parent="1" vertex="1">
          <mxGeometry x="295" y="415" width="288" height="30" as="geometry" />
        </mxCell>
        <mxCell id="7PJYwHTWWEtQcOT2h8YD-118" value="" style="endArrow=classic;html=1;rounded=0;exitX=0.194;exitY=-0.034;exitDx=0;exitDy=0;exitPerimeter=0;entryX=0.131;entryY=1.123;entryDx=0;entryDy=0;entryPerimeter=0;" parent="1" target="7PJYwHTWWEtQcOT2h8YD-115" edge="1">
          <mxGeometry width="50" height="50" relative="1" as="geometry">
            <mxPoint x="240" y="437.39" as="sourcePoint" />
            <mxPoint x="630" y="442" as="targetPoint" />
            <Array as="points" />
          </mxGeometry>
        </mxCell>
        <mxCell id="7PJYwHTWWEtQcOT2h8YD-119" value="" style="endArrow=open;dashed=1;html=1;rounded=0;endFill=0;strokeWidth=1;strokeColor=default;entryX=0;entryY=0.5;entryDx=0;entryDy=0;" parent="1" target="7PJYwHTWWEtQcOT2h8YD-124" edge="1">
          <mxGeometry width="50" height="50" relative="1" as="geometry">
            <mxPoint x="640" y="450" as="sourcePoint" />
            <mxPoint x="760" y="450" as="targetPoint" />
          </mxGeometry>
        </mxCell>
        <mxCell id="7PJYwHTWWEtQcOT2h8YD-121" value="&amp;lt;&amp;lt;create&amp;gt;&amp;gt;" style="text;html=1;align=center;verticalAlign=middle;whiteSpace=wrap;rounded=0;" parent="1" vertex="1">
          <mxGeometry x="670" y="428.78999999999996" width="60" height="30" as="geometry" />
        </mxCell>
        <mxCell id="7PJYwHTWWEtQcOT2h8YD-124" value="Usuario:User1" style="rounded=1;whiteSpace=wrap;html=1;" parent="1" vertex="1">
          <mxGeometry x="750" y="429.83" width="110" height="40" as="geometry" />
        </mxCell>
        <mxCell id="7PJYwHTWWEtQcOT2h8YD-125" value="Usuario:User2" style="rounded=1;whiteSpace=wrap;html=1;" parent="1" vertex="1">
          <mxGeometry x="750" y="1364" width="110" height="40" as="geometry" />
        </mxCell>
        <mxCell id="7PJYwHTWWEtQcOT2h8YD-126" value="" style="endArrow=none;dashed=1;html=1;dashPattern=1 3;strokeWidth=2;rounded=0;exitX=0.5;exitY=0;exitDx=0;exitDy=0;" parent="1" source="7PJYwHTWWEtQcOT2h8YD-125" target="7PJYwHTWWEtQcOT2h8YD-124" edge="1">
          <mxGeometry width="50" height="50" relative="1" as="geometry">
            <mxPoint x="810" y="1428.857142857143" as="sourcePoint" />
            <mxPoint x="810" y="600" as="targetPoint" />
          </mxGeometry>
        </mxCell>
        <mxCell id="7PJYwHTWWEtQcOT2h8YD-128" value="" style="endArrow=open;dashed=1;html=1;rounded=0;entryX=0.75;entryY=0;entryDx=0;entryDy=0;exitX=0.637;exitY=1.133;exitDx=0;exitDy=0;exitPerimeter=0;startArrow=none;startFill=0;endFill=0;" parent="1" source="7PJYwHTWWEtQcOT2h8YD-115" target="7PJYwHTWWEtQcOT2h8YD-94" edge="1">
          <mxGeometry width="50" height="50" relative="1" as="geometry">
            <mxPoint x="690" y="340" as="sourcePoint" />
            <mxPoint x="380" y="360" as="targetPoint" />
          </mxGeometry>
        </mxCell>
        <mxCell id="7PJYwHTWWEtQcOT2h8YD-129" value="12.Confirmação da criação do usuario" style="text;html=1;align=center;verticalAlign=middle;whiteSpace=wrap;rounded=0;" parent="1" vertex="1">
          <mxGeometry x="270" y="447.41999999999996" width="288" height="30" as="geometry" />
        </mxCell>
        <mxCell id="7PJYwHTWWEtQcOT2h8YD-137" value="" style="endArrow=open;html=1;rounded=0;exitX=0.36;exitY=0.79;exitDx=0;exitDy=0;exitPerimeter=0;endFill=0;dashed=1;" parent="1" edge="1">
          <mxGeometry width="50" height="50" relative="1" as="geometry">
            <mxPoint x="222.05000000000013" y="460.3399999999996" as="sourcePoint" />
            <mxPoint x="-2.049999999999997" y="458.65999999999997" as="targetPoint" />
            <Array as="points" />
          </mxGeometry>
        </mxCell>
        <mxCell id="7PJYwHTWWEtQcOT2h8YD-138" value="13.Retorno com o login" style="text;html=1;align=center;verticalAlign=middle;whiteSpace=wrap;rounded=0;" parent="1" vertex="1">
          <mxGeometry x="17.950000000000003" y="451.65999999999997" width="180" height="30" as="geometry" />
        </mxCell>
        <mxCell id="7PJYwHTWWEtQcOT2h8YD-139" value="" style="endArrow=none;dashed=1;html=1;strokeWidth=1;rounded=0;entryX=0.942;entryY=0.931;entryDx=0;entryDy=0;entryPerimeter=0;endFill=0;startArrow=open;startFill=0;" parent="1" edge="1">
          <mxGeometry width="50" height="50" relative="1" as="geometry">
            <mxPoint x="-238.37" y="469.66" as="sourcePoint" />
            <mxPoint x="-7.3700000000000045" y="469.66" as="targetPoint" />
          </mxGeometry>
        </mxCell>
        <mxCell id="7PJYwHTWWEtQcOT2h8YD-140" value="&lt;span style=&quot;background-color: transparent; color: light-dark(rgb(0, 0, 0), rgb(255, 255, 255));&quot;&gt;14.Exibir tela anterior ao login&lt;/span&gt;" style="text;html=1;align=center;verticalAlign=middle;whiteSpace=wrap;rounded=0;" parent="1" vertex="1">
          <mxGeometry x="-211.37" y="441.66" width="170" height="40" as="geometry" />
        </mxCell>
        <mxCell id="7PJYwHTWWEtQcOT2h8YD-142" value="7.RegistarParticipação(user_id)" style="text;html=1;align=center;verticalAlign=middle;whiteSpace=wrap;rounded=0;" parent="1" vertex="1">
          <mxGeometry x="80" y="510" width="60" height="20" as="geometry" />
        </mxCell>
        <mxCell id="7PJYwHTWWEtQcOT2h8YD-143" value="" style="endArrow=classic;html=1;rounded=0;exitX=0.194;exitY=-0.034;exitDx=0;exitDy=0;exitPerimeter=0;" parent="1" edge="1">
          <mxGeometry width="50" height="50" relative="1" as="geometry">
            <mxPoint y="529" as="sourcePoint" />
            <mxPoint x="220" y="530" as="targetPoint" />
            <Array as="points">
              <mxPoint x="140" y="530" />
            </Array>
          </mxGeometry>
        </mxCell>
        <mxCell id="7PJYwHTWWEtQcOT2h8YD-144" value="" style="rounded=0;whiteSpace=wrap;html=1;rotation=90;" parent="1" vertex="1">
          <mxGeometry x="101.22" y="644.79" width="248.98" height="10" as="geometry" />
        </mxCell>
        <mxCell id="7PJYwHTWWEtQcOT2h8YD-145" value="10.Pedir confirmação da participação" style="text;html=1;align=center;verticalAlign=middle;whiteSpace=wrap;rounded=0;" parent="1" vertex="1">
          <mxGeometry y="647.01" width="220" height="32" as="geometry" />
        </mxCell>
        <mxCell id="7PJYwHTWWEtQcOT2h8YD-146" value="" style="endArrow=none;html=1;rounded=0;exitX=0.194;exitY=-0.034;exitDx=0;exitDy=0;exitPerimeter=0;startArrow=open;startFill=0;endFill=0;dashed=1;" parent="1" edge="1">
          <mxGeometry width="50" height="50" relative="1" as="geometry">
            <mxPoint y="652" as="sourcePoint" />
            <mxPoint x="220" y="653" as="targetPoint" />
            <Array as="points">
              <mxPoint x="140" y="653" />
            </Array>
          </mxGeometry>
        </mxCell>
        <mxCell id="7PJYwHTWWEtQcOT2h8YD-148" value="" style="endArrow=classic;html=1;rounded=0;" parent="1" edge="1">
          <mxGeometry width="50" height="50" relative="1" as="geometry">
            <mxPoint x="-240" y="666" as="sourcePoint" />
            <mxPoint x="-10" y="666" as="targetPoint" />
          </mxGeometry>
        </mxCell>
        <mxCell id="7PJYwHTWWEtQcOT2h8YD-149" value="11.Confirmar()" style="text;html=1;align=center;verticalAlign=middle;whiteSpace=wrap;rounded=0;" parent="1" vertex="1">
          <mxGeometry x="-156" y="640" width="50" height="31" as="geometry" />
        </mxCell>
        <mxCell id="7PJYwHTWWEtQcOT2h8YD-152" value="&lt;span style=&quot;background-color: transparent; color: light-dark(rgb(0, 0, 0), rgb(255, 255, 255));&quot;&gt;8.VerificarParticipação(user_id,event_id&lt;/span&gt;&lt;span style=&quot;background-color: transparent; color: light-dark(rgb(0, 0, 0), rgb(255, 255, 255));&quot;&gt;)&lt;/span&gt;" style="text;html=1;align=center;verticalAlign=middle;whiteSpace=wrap;rounded=0;" parent="1" vertex="1">
          <mxGeometry x="595.4100000000001" y="519" width="60" height="30" as="geometry" />
        </mxCell>
        <mxCell id="7PJYwHTWWEtQcOT2h8YD-153" value="" style="endArrow=classic;html=1;rounded=0;entryX=0.108;entryY=0.786;entryDx=0;entryDy=0;entryPerimeter=0;" parent="1" target="7PJYwHTWWEtQcOT2h8YD-197" edge="1">
          <mxGeometry width="50" height="50" relative="1" as="geometry">
            <mxPoint x="230" y="541" as="sourcePoint" />
            <mxPoint x="435" y="540" as="targetPoint" />
            <Array as="points">
              <mxPoint x="360" y="541" />
            </Array>
          </mxGeometry>
        </mxCell>
        <mxCell id="7PJYwHTWWEtQcOT2h8YD-156" value="alt" style="shape=umlFrame;whiteSpace=wrap;html=1;pointerEvents=0;width=30;height=20;" parent="1" vertex="1">
          <mxGeometry x="-289" y="549" width="1429" height="81" as="geometry" />
        </mxCell>
        <mxCell id="7PJYwHTWWEtQcOT2h8YD-157" value="[Participante já participa do evento]" style="text;html=1;align=center;verticalAlign=middle;whiteSpace=wrap;rounded=0;" parent="1" vertex="1">
          <mxGeometry x="-234.37" y="544" width="190" height="30" as="geometry" />
        </mxCell>
        <mxCell id="7PJYwHTWWEtQcOT2h8YD-158" value="" style="endArrow=open;html=1;rounded=0;dashed=1;exitX=0.878;exitY=1.071;exitDx=0;exitDy=0;endFill=0;exitPerimeter=0;" parent="1" source="7PJYwHTWWEtQcOT2h8YD-197" edge="1">
          <mxGeometry width="50" height="50" relative="1" as="geometry">
            <mxPoint x="432.9999999999998" y="575.25" as="sourcePoint" />
            <mxPoint x="230" y="564" as="targetPoint" />
            <Array as="points" />
          </mxGeometry>
        </mxCell>
        <mxCell id="7PJYwHTWWEtQcOT2h8YD-159" value="9.Está participando" style="text;html=1;align=center;verticalAlign=middle;whiteSpace=wrap;rounded=0;" parent="1" vertex="1">
          <mxGeometry x="498" y="556.2099999999999" width="225" height="30" as="geometry" />
        </mxCell>
        <mxCell id="7PJYwHTWWEtQcOT2h8YD-160" value="" style="endArrow=open;html=1;rounded=0;dashed=1;entryX=0.737;entryY=0;entryDx=0;entryDy=0;endFill=0;entryPerimeter=0;" parent="1" target="7PJYwHTWWEtQcOT2h8YD-91" edge="1">
          <mxGeometry width="50" height="50" relative="1" as="geometry">
            <mxPoint x="218" y="585" as="sourcePoint" />
            <mxPoint x="10" y="586.8749999999999" as="targetPoint" />
            <Array as="points" />
          </mxGeometry>
        </mxCell>
        <mxCell id="7PJYwHTWWEtQcOT2h8YD-161" value="10.Participação negada, já está participando" style="text;html=1;align=center;verticalAlign=middle;whiteSpace=wrap;rounded=0;" parent="1" vertex="1">
          <mxGeometry x="33.99999999999977" y="586" width="140" height="30" as="geometry" />
        </mxCell>
        <mxCell id="7PJYwHTWWEtQcOT2h8YD-162" value="" style="endArrow=open;html=1;rounded=0;dashed=1;entryX=0.737;entryY=0;entryDx=0;entryDy=0;exitX=0.381;exitY=0.57;exitDx=0;exitDy=0;endFill=0;exitPerimeter=0;entryPerimeter=0;" parent="1" edge="1">
          <mxGeometry width="50" height="50" relative="1" as="geometry">
            <mxPoint x="-9.370000000000005" y="590.65" as="sourcePoint" />
            <mxPoint x="-234.37" y="589.65" as="targetPoint" />
            <Array as="points" />
          </mxGeometry>
        </mxCell>
        <mxCell id="7PJYwHTWWEtQcOT2h8YD-163" value="11.Participação negada, já participando" style="text;html=1;align=center;verticalAlign=middle;whiteSpace=wrap;rounded=0;" parent="1" vertex="1">
          <mxGeometry x="-200.37000000000023" y="590.65" width="140" height="30" as="geometry" />
        </mxCell>
        <mxCell id="7PJYwHTWWEtQcOT2h8YD-166" value="9.Não está participando" style="text;html=1;align=center;verticalAlign=middle;whiteSpace=wrap;rounded=0;" parent="1" vertex="1">
          <mxGeometry x="529.9999999999998" y="633.9950000000001" width="140" height="30" as="geometry" />
        </mxCell>
        <mxCell id="7PJYwHTWWEtQcOT2h8YD-173" value="12.Confirmação realizada" style="text;html=1;align=center;verticalAlign=middle;whiteSpace=wrap;rounded=0;" parent="1" vertex="1">
          <mxGeometry x="34" y="670" width="156" height="32" as="geometry" />
        </mxCell>
        <mxCell id="7PJYwHTWWEtQcOT2h8YD-174" value="" style="endArrow=open;html=1;rounded=0;exitX=0.194;exitY=-0.034;exitDx=0;exitDy=0;exitPerimeter=0;startArrow=none;startFill=0;endFill=0;dashed=1;" parent="1" edge="1">
          <mxGeometry width="50" height="50" relative="1" as="geometry">
            <mxPoint y="676.99" as="sourcePoint" />
            <mxPoint x="220" y="677.99" as="targetPoint" />
            <Array as="points">
              <mxPoint x="140" y="677.99" />
            </Array>
          </mxGeometry>
        </mxCell>
        <mxCell id="7PJYwHTWWEtQcOT2h8YD-176" value="&lt;span style=&quot;background-color: transparent; color: light-dark(rgb(0, 0, 0), rgb(255, 255, 255));&quot;&gt;13.IncluirParticipação(user_id,event_id&lt;/span&gt;&lt;span style=&quot;background-color: transparent; color: light-dark(rgb(0, 0, 0), rgb(255, 255, 255));&quot;&gt;)&lt;/span&gt;" style="text;html=1;align=center;verticalAlign=middle;whiteSpace=wrap;rounded=0;" parent="1" vertex="1">
          <mxGeometry x="498" y="700" width="60" height="30" as="geometry" />
        </mxCell>
        <mxCell id="7PJYwHTWWEtQcOT2h8YD-185" value="" style="endArrow=classic;html=1;rounded=0;entryX=0.25;entryY=1;entryDx=0;entryDy=0;" parent="1" edge="1" target="7PJYwHTWWEtQcOT2h8YD-190">
          <mxGeometry width="50" height="50" relative="1" as="geometry">
            <mxPoint x="229" y="721" as="sourcePoint" />
            <mxPoint x="980" y="720" as="targetPoint" />
            <Array as="points">
              <mxPoint x="359" y="721" />
            </Array>
          </mxGeometry>
        </mxCell>
        <mxCell id="7PJYwHTWWEtQcOT2h8YD-187" value="" style="endArrow=none;dashed=1;html=1;dashPattern=1 3;strokeWidth=2;rounded=0;exitX=0.5;exitY=0.125;exitDx=0;exitDy=0;entryX=0.5;entryY=1;entryDx=0;entryDy=0;exitPerimeter=0;" parent="1" source="7PJYwHTWWEtQcOT2h8YD-189" edge="1">
          <mxGeometry width="50" height="50" relative="1" as="geometry">
            <mxPoint x="1127" y="814" as="sourcePoint" />
            <mxPoint x="1125" y="69" as="targetPoint" />
          </mxGeometry>
        </mxCell>
        <mxCell id="7PJYwHTWWEtQcOT2h8YD-188" value=":WalletEvent" style="rounded=1;whiteSpace=wrap;html=1;" parent="1" vertex="1">
          <mxGeometry x="1070" y="30" width="110" height="40" as="geometry" />
        </mxCell>
        <mxCell id="7PJYwHTWWEtQcOT2h8YD-189" value=":WalletEvent" style="rounded=1;whiteSpace=wrap;html=1;" parent="1" vertex="1">
          <mxGeometry x="1072" y="1363" width="110" height="40" as="geometry" />
        </mxCell>
        <mxCell id="7PJYwHTWWEtQcOT2h8YD-190" value="&lt;span style=&quot;color: rgba(0, 0, 0, 0); font-family: monospace; font-size: 0px; text-align: start; text-wrap-mode: nowrap;&quot;&gt;%3CmxGraphModel%3E%3Croot%3E%3CmxCell%20id%3D%220%22%2F%3E%3CmxCell%20id%3D%221%22%20parent%3D%220%22%2F%3E%3CmxCell%20id%3D%222%22%20value%3D%2215.Confirma%C3%A7%C3%A3o%20da%20participa%C3%A7%C3%A3o%22%20style%3D%22text%3Bhtml%3D1%3Balign%3Dcenter%3BverticalAlign%3Dmiddle%3BwhiteSpace%3Dwrap%3Brounded%3D0%3B%22%20vertex%3D%221%22%20parent%3D%221%22%3E%3CmxGeometry%20x%3D%2226%22%20y%3D%22730%22%20width%3D%22174%22%20height%3D%2232%22%20as%3D%22geometry%22%2F%3E%3C%2FmxCell%3E%3CmxCell%20id%3D%223%22%20value%3D%22%22%20style%3D%22endArrow%3Dnone%3Bhtml%3D1%3Brounded%3D0%3BexitX%3D0.194%3BexitY%3D-0.034%3BexitDx%3D0%3BexitDy%3D0%3BexitPerimeter%3D0%3BstartArrow%3Dopen%3BstartFill%3D0%3BendFill%3D0%3Bdashed%3D1%3B%22%20edge%3D%221%22%20parent%3D%221%22%3E%3CmxGeometry%20width%3D%2250%22%20height%3D%2250%22%20relative%3D%221%22%20as%3D%22geometry%22%3E%3CmxPoint%20y%3D%22736.99%22%20as%3D%22sourcePoint%22%2F%3E%3CmxPoint%20x%3D%22220%22%20y%3D%22737.99%22%20as%3D%22targetPoint%22%2F%3E%3CArray%20as%3D%22points%22%3E%3CmxPoint%20x%3D%22140%22%20y%3D%22737.99%22%2F%3E%3C%2FArray%3E%3C%2FmxGeometry%3E%3C%2FmxCell%3E%3C%2Froot%3E%3C%2FmxGraphModel%3E&lt;/span&gt;" style="rounded=0;whiteSpace=wrap;html=1;rotation=90;" parent="1" vertex="1">
          <mxGeometry x="1106.165" y="729.995" width="40.83" height="10" as="geometry" />
        </mxCell>
        <mxCell id="7PJYwHTWWEtQcOT2h8YD-191" value="14.confirmação de criação da participação" style="text;html=1;align=center;verticalAlign=middle;whiteSpace=wrap;rounded=0;" parent="1" vertex="1">
          <mxGeometry x="459" y="729" width="245" height="22" as="geometry" />
        </mxCell>
        <mxCell id="7PJYwHTWWEtQcOT2h8YD-192" value="" style="endArrow=none;html=1;rounded=0;exitX=0.822;exitY=-0.229;exitDx=0;exitDy=0;exitPerimeter=0;startArrow=open;startFill=0;endFill=0;dashed=1;entryX=0.5;entryY=1;entryDx=0;entryDy=0;" parent="1" source="7PJYwHTWWEtQcOT2h8YD-144" target="7PJYwHTWWEtQcOT2h8YD-190" edge="1">
          <mxGeometry width="50" height="50" relative="1" as="geometry">
            <mxPoint x="410" y="736.99" as="sourcePoint" />
            <mxPoint x="630" y="737.99" as="targetPoint" />
            <Array as="points" />
          </mxGeometry>
        </mxCell>
        <mxCell id="7PJYwHTWWEtQcOT2h8YD-193" value="15.Confirmação da participação" style="text;html=1;align=center;verticalAlign=middle;whiteSpace=wrap;rounded=0;" parent="1" vertex="1">
          <mxGeometry x="26" y="730" width="174" height="32" as="geometry" />
        </mxCell>
        <mxCell id="7PJYwHTWWEtQcOT2h8YD-194" value="" style="endArrow=none;html=1;rounded=0;exitX=0.194;exitY=-0.034;exitDx=0;exitDy=0;exitPerimeter=0;startArrow=open;startFill=0;endFill=0;dashed=1;" parent="1" edge="1">
          <mxGeometry width="50" height="50" relative="1" as="geometry">
            <mxPoint y="736.99" as="sourcePoint" />
            <mxPoint x="220" y="737.99" as="targetPoint" />
            <Array as="points">
              <mxPoint x="140" y="737.99" />
            </Array>
          </mxGeometry>
        </mxCell>
        <mxCell id="7PJYwHTWWEtQcOT2h8YD-195" value="16.Exibir a confirmação da participação" style="text;html=1;align=center;verticalAlign=middle;whiteSpace=wrap;rounded=0;" parent="1" vertex="1">
          <mxGeometry x="-232" y="738" width="230" height="32" as="geometry" />
        </mxCell>
        <mxCell id="7PJYwHTWWEtQcOT2h8YD-196" value="" style="endArrow=none;html=1;rounded=0;startArrow=open;startFill=0;endFill=0;dashed=1;" parent="1" edge="1">
          <mxGeometry width="50" height="50" relative="1" as="geometry">
            <mxPoint x="-240" y="746" as="sourcePoint" />
            <mxPoint x="-10" y="746" as="targetPoint" />
            <Array as="points">
              <mxPoint x="-160" y="746" />
              <mxPoint x="-87" y="745.99" />
            </Array>
          </mxGeometry>
        </mxCell>
        <mxCell id="7PJYwHTWWEtQcOT2h8YD-197" value="&lt;span style=&quot;color: rgba(0, 0, 0, 0); font-family: monospace; font-size: 0px; text-align: start; text-wrap-mode: nowrap;&quot;&gt;%3CmxGraphModel%3E%3Croot%3E%3CmxCell%20id%3D%220%22%2F%3E%3CmxCell%20id%3D%221%22%20parent%3D%220%22%2F%3E%3CmxCell%20id%3D%222%22%20value%3D%2215.Confirma%C3%A7%C3%A3o%20da%20participa%C3%A7%C3%A3o%22%20style%3D%22text%3Bhtml%3D1%3Balign%3Dcenter%3BverticalAlign%3Dmiddle%3BwhiteSpace%3Dwrap%3Brounded%3D0%3B%22%20vertex%3D%221%22%20parent%3D%221%22%3E%3CmxGeometry%20x%3D%2226%22%20y%3D%22730%22%20width%3D%22174%22%20height%3D%2232%22%20as%3D%22geometry%22%2F%3E%3C%2FmxCell%3E%3CmxCell%20id%3D%223%22%20value%3D%22%22%20style%3D%22endArrow%3Dnone%3Bhtml%3D1%3Brounded%3D0%3BexitX%3D0.194%3BexitY%3D-0.034%3BexitDx%3D0%3BexitDy%3D0%3BexitPerimeter%3D0%3BstartArrow%3Dopen%3BstartFill%3D0%3BendFill%3D0%3Bdashed%3D1%3B%22%20edge%3D%221%22%20parent%3D%221%22%3E%3CmxGeometry%20width%3D%2250%22%20height%3D%2250%22%20relative%3D%221%22%20as%3D%22geometry%22%3E%3CmxPoint%20y%3D%22736.99%22%20as%3D%22sourcePoint%22%2F%3E%3CmxPoint%20x%3D%22220%22%20y%3D%22737.99%22%20as%3D%22targetPoint%22%2F%3E%3CArray%20as%3D%22points%22%3E%3CmxPoint%20x%3D%22140%22%20y%3D%22737.99%22%2F%3E%3C%2FArray%3E%3C%2FmxGeometry%3E%3C%2FmxCell%3E%3C%2Froot%3E%3C%2FmxGraphModel%3E&lt;/span&gt;" style="rounded=0;whiteSpace=wrap;html=1;rotation=90;" parent="1" vertex="1">
          <mxGeometry x="1108.79" y="546.21" width="34.41" height="10" as="geometry" />
        </mxCell>
        <mxCell id="7PJYwHTWWEtQcOT2h8YD-198" value="&lt;span style=&quot;color: rgba(0, 0, 0, 0); font-family: monospace; font-size: 0px; text-align: start; text-wrap-mode: nowrap;&quot;&gt;%3CmxGraphModel%3E%3Croot%3E%3CmxCell%20id%3D%220%22%2F%3E%3CmxCell%20id%3D%221%22%20parent%3D%220%22%2F%3E%3CmxCell%20id%3D%222%22%20value%3D%22%26lt%3Bspan%20style%3D%26quot%3Bcolor%3A%20rgba(0%2C%200%2C%200%2C%200)%3B%20font-family%3A%20monospace%3B%20font-size%3A%200px%3B%20text-align%3A%20start%3B%20text-wrap-mode%3A%20nowrap%3B%26quot%3B%26gt%3B%253CmxGraphModel%253E%253Croot%253E%253CmxCell%2520id%253D%25220%2522%252F%253E%253CmxCell%2520id%253D%25221%2522%2520parent%253D%25220%2522%252F%253E%253CmxCell%2520id%253D%25222%2522%2520value%253D%252215.Confirma%25C3%25A7%25C3%25A3o%2520da%2520participa%25C3%25A7%25C3%25A3o%2522%2520style%253D%2522text%253Bhtml%253D1%253Balign%253Dcenter%253BverticalAlign%253Dmiddle%253BwhiteSpace%253Dwrap%253Brounded%253D0%253B%2522%2520vertex%253D%25221%2522%2520parent%253D%25221%2522%253E%253CmxGeometry%2520x%253D%252226%2522%2520y%253D%2522730%2522%2520width%253D%2522174%2522%2520height%253D%252232%2522%2520as%253D%2522geometry%2522%252F%253E%253C%252FmxCell%253E%253CmxCell%2520id%253D%25223%2522%2520value%253D%2522%2522%2520style%253D%2522endArrow%253Dnone%253Bhtml%253D1%253Brounded%253D0%253BexitX%253D0.194%253BexitY%253D-0.034%253BexitDx%253D0%253BexitDy%253D0%253BexitPerimeter%253D0%253BstartArrow%253Dopen%253BstartFill%253D0%253BendFill%253D0%253Bdashed%253D1%253B%2522%2520edge%253D%25221%2522%2520parent%253D%25221%2522%253E%253CmxGeometry%2520width%253D%252250%2522%2520height%253D%252250%2522%2520relative%253D%25221%2522%2520as%253D%2522geometry%2522%253E%253CmxPoint%2520y%253D%2522736.99%2522%2520as%253D%2522sourcePoint%2522%252F%253E%253CmxPoint%2520x%253D%2522220%2522%2520y%253D%2522737.99%2522%2520as%253D%2522targetPoint%2522%252F%253E%253CArray%2520as%253D%2522points%2522%253E%253CmxPoint%2520x%253D%2522140%2522%2520y%253D%2522737.99%2522%252F%253E%253C%252FArray%253E%253C%252FmxGeometry%253E%253C%252FmxCell%253E%253C%252Froot%253E%253C%252FmxGraphModel%253E%26lt%3B%2Fspan%26gt%3B%22%20style%3D%22rounded%3D0%3BwhiteSpace%3Dwrap%3Bhtml%3D1%3Brotation%3D90%3B%22%20vertex%3D%221%22%20parent%3D%221%22%3E%3CmxGeometry%20x%3D%22966.1650000000001%22%20y%3D%22729.995%22%20width%3D%2240.83%22%20height%3D%2210%22%20as%3D%22geometry%22%2F%3E%3C%2FmxCell%3E%3C%2Froot%3E%3C%2FmxGraphModel%3E&lt;/span&gt;" style="rounded=0;whiteSpace=wrap;html=1;rotation=90;" parent="1" vertex="1">
          <mxGeometry x="1111" y="638" width="32" height="10" as="geometry" />
        </mxCell>
        <mxCell id="7PJYwHTWWEtQcOT2h8YD-201" style="edgeStyle=orthogonalEdgeStyle;rounded=0;orthogonalLoop=1;jettySize=auto;html=1;exitX=0.5;exitY=1;exitDx=0;exitDy=0;" parent="1" source="7PJYwHTWWEtQcOT2h8YD-166" target="7PJYwHTWWEtQcOT2h8YD-166" edge="1">
          <mxGeometry relative="1" as="geometry" />
        </mxCell>
        <mxCell id="gjqOyfGNY4zWrT8vkuJQ-2" value="alt" style="shape=umlFrame;whiteSpace=wrap;html=1;pointerEvents=0;width=30;height=15;" vertex="1" parent="1">
          <mxGeometry x="-300" y="803" width="1490" height="527" as="geometry" />
        </mxCell>
        <mxCell id="gjqOyfGNY4zWrT8vkuJQ-3" value="[Cancelar Participação do evento]" style="text;html=1;align=center;verticalAlign=middle;whiteSpace=wrap;rounded=0;" vertex="1" parent="1">
          <mxGeometry x="-234.37" y="803" width="190" height="30" as="geometry" />
        </mxCell>
        <mxCell id="gjqOyfGNY4zWrT8vkuJQ-5" value="alt" style="shape=umlFrame;whiteSpace=wrap;html=1;pointerEvents=0;width=40;height=15;" vertex="1" parent="1">
          <mxGeometry x="-290" y="864.63" width="1340" height="178" as="geometry" />
        </mxCell>
        <mxCell id="gjqOyfGNY4zWrT8vkuJQ-6" value="[Participante não logado]" style="text;html=1;align=center;verticalAlign=middle;whiteSpace=wrap;rounded=0;" vertex="1" parent="1">
          <mxGeometry x="-247" y="860" width="160" height="30" as="geometry" />
        </mxCell>
        <mxCell id="gjqOyfGNY4zWrT8vkuJQ-7" value="" style="endArrow=classic;html=1;rounded=0;exitX=0.708;exitY=0.32;exitDx=0;exitDy=0;exitPerimeter=0;entryX=0.381;entryY=-0.166;entryDx=0;entryDy=0;entryPerimeter=0;" edge="1" parent="1">
          <mxGeometry width="50" height="50" relative="1" as="geometry">
            <mxPoint x="-3.2000000000000455" y="889.9992000000002" as="sourcePoint" />
            <mxPoint x="2" y="918.63" as="targetPoint" />
            <Array as="points">
              <mxPoint x="30" y="889.63" />
              <mxPoint x="30" y="916.63" />
            </Array>
          </mxGeometry>
        </mxCell>
        <mxCell id="gjqOyfGNY4zWrT8vkuJQ-8" value="&lt;span style=&quot;background-color: transparent; color: light-dark(rgb(0, 0, 0), rgb(255, 255, 255));&quot;&gt;7.IniciarCadastro&lt;/span&gt;&lt;span style=&quot;background-color: transparent; color: light-dark(rgb(0, 0, 0), rgb(255, 255, 255));&quot;&gt;(&lt;/span&gt;&lt;span style=&quot;background-color: transparent; color: light-dark(rgb(0, 0, 0), rgb(255, 255, 255));&quot;&gt;)&lt;/span&gt;" style="text;html=1;align=center;verticalAlign=middle;whiteSpace=wrap;rounded=0;" vertex="1" parent="1">
          <mxGeometry x="52" y="887.94" width="60" height="30" as="geometry" />
        </mxCell>
        <mxCell id="gjqOyfGNY4zWrT8vkuJQ-9" value="" style="rounded=0;whiteSpace=wrap;html=1;rotation=90;" vertex="1" parent="1">
          <mxGeometry x="208.30999999999995" y="1004.29" width="37.4" height="10" as="geometry" />
        </mxCell>
        <mxCell id="gjqOyfGNY4zWrT8vkuJQ-10" value="" style="endArrow=none;dashed=1;html=1;strokeWidth=1;rounded=0;entryX=0.942;entryY=0.931;entryDx=0;entryDy=0;entryPerimeter=0;endFill=0;startArrow=open;startFill=0;" edge="1" parent="1">
          <mxGeometry width="50" height="50" relative="1" as="geometry">
            <mxPoint x="-242" y="928.63" as="sourcePoint" />
            <mxPoint x="-11" y="928.63" as="targetPoint" />
          </mxGeometry>
        </mxCell>
        <mxCell id="gjqOyfGNY4zWrT8vkuJQ-11" value="&lt;span style=&quot;background-color: transparent; color: light-dark(rgb(0, 0, 0), rgb(255, 255, 255));&quot;&gt;8.Exibir tela de login&lt;/span&gt;" style="text;html=1;align=center;verticalAlign=middle;whiteSpace=wrap;rounded=0;" vertex="1" parent="1">
          <mxGeometry x="-215" y="900.63" width="170" height="40" as="geometry" />
        </mxCell>
        <mxCell id="gjqOyfGNY4zWrT8vkuJQ-12" value="" style="endArrow=classic;html=1;rounded=0;" edge="1" parent="1">
          <mxGeometry width="50" height="50" relative="1" as="geometry">
            <mxPoint x="-240" y="976.63" as="sourcePoint" />
            <mxPoint x="-10" y="976.63" as="targetPoint" />
          </mxGeometry>
        </mxCell>
        <mxCell id="gjqOyfGNY4zWrT8vkuJQ-13" value="9.PreencherDados(user_name,email,&lt;br&gt;fone,password,birthday)" style="text;html=1;align=center;verticalAlign=middle;whiteSpace=wrap;rounded=0;" vertex="1" parent="1">
          <mxGeometry x="-156" y="933.63" width="50" height="51" as="geometry" />
        </mxCell>
        <mxCell id="gjqOyfGNY4zWrT8vkuJQ-14" value="10.CriarUsuario&lt;span style=&quot;background-color: transparent; color: light-dark(rgb(0, 0, 0), rgb(255, 255, 255));&quot;&gt;(&lt;/span&gt;user_name,email,&lt;br&gt;fone,password,birthday&lt;span style=&quot;background-color: transparent; color: light-dark(rgb(0, 0, 0), rgb(255, 255, 255));&quot;&gt;)&lt;/span&gt;" style="text;html=1;align=center;verticalAlign=middle;whiteSpace=wrap;rounded=0;" vertex="1" parent="1">
          <mxGeometry x="80" y="962.63" width="60" height="30" as="geometry" />
        </mxCell>
        <mxCell id="gjqOyfGNY4zWrT8vkuJQ-15" value="" style="endArrow=classic;html=1;rounded=0;exitX=0.194;exitY=-0.034;exitDx=0;exitDy=0;exitPerimeter=0;" edge="1" parent="1">
          <mxGeometry width="50" height="50" relative="1" as="geometry">
            <mxPoint y="991.63" as="sourcePoint" />
            <mxPoint x="220" y="992.63" as="targetPoint" />
            <Array as="points">
              <mxPoint x="140" y="992.63" />
            </Array>
          </mxGeometry>
        </mxCell>
        <mxCell id="gjqOyfGNY4zWrT8vkuJQ-16" value="" style="rounded=0;whiteSpace=wrap;html=1;rotation=90;" vertex="1" parent="1">
          <mxGeometry x="614.5799999999999" y="1010.05" width="40.83" height="10" as="geometry" />
        </mxCell>
        <mxCell id="gjqOyfGNY4zWrT8vkuJQ-17" value="11.CriarUsuario&lt;span style=&quot;color: light-dark(rgb(0, 0, 0), rgb(255, 255, 255)); background-color: transparent;&quot;&gt;(&lt;/span&gt;user_name,email,fone,password,birthday&lt;span style=&quot;color: light-dark(rgb(0, 0, 0), rgb(255, 255, 255)); background-color: transparent;&quot;&gt;)&lt;/span&gt;" style="text;html=1;align=center;verticalAlign=middle;whiteSpace=wrap;rounded=0;" vertex="1" parent="1">
          <mxGeometry x="295" y="977.63" width="288" height="30" as="geometry" />
        </mxCell>
        <mxCell id="gjqOyfGNY4zWrT8vkuJQ-18" value="" style="endArrow=classic;html=1;rounded=0;exitX=0.194;exitY=-0.034;exitDx=0;exitDy=0;exitPerimeter=0;entryX=0.131;entryY=1.123;entryDx=0;entryDy=0;entryPerimeter=0;" edge="1" parent="1" target="gjqOyfGNY4zWrT8vkuJQ-16">
          <mxGeometry width="50" height="50" relative="1" as="geometry">
            <mxPoint x="240" y="1000.02" as="sourcePoint" />
            <mxPoint x="630" y="1004.63" as="targetPoint" />
            <Array as="points" />
          </mxGeometry>
        </mxCell>
        <mxCell id="gjqOyfGNY4zWrT8vkuJQ-19" value="" style="endArrow=open;dashed=1;html=1;rounded=0;endFill=0;strokeWidth=1;strokeColor=default;entryX=0;entryY=0.5;entryDx=0;entryDy=0;" edge="1" parent="1" target="gjqOyfGNY4zWrT8vkuJQ-21">
          <mxGeometry width="50" height="50" relative="1" as="geometry">
            <mxPoint x="640" y="1012.63" as="sourcePoint" />
            <mxPoint x="760" y="1012.63" as="targetPoint" />
          </mxGeometry>
        </mxCell>
        <mxCell id="gjqOyfGNY4zWrT8vkuJQ-20" value="&amp;lt;&amp;lt;create&amp;gt;&amp;gt;" style="text;html=1;align=center;verticalAlign=middle;whiteSpace=wrap;rounded=0;" vertex="1" parent="1">
          <mxGeometry x="731" y="991.42" width="60" height="30" as="geometry" />
        </mxCell>
        <mxCell id="gjqOyfGNY4zWrT8vkuJQ-21" value="Usuario:User2" style="rounded=1;whiteSpace=wrap;html=1;" vertex="1" parent="1">
          <mxGeometry x="900" y="992.46" width="110" height="40" as="geometry" />
        </mxCell>
        <mxCell id="gjqOyfGNY4zWrT8vkuJQ-22" value="" style="endArrow=open;dashed=1;html=1;rounded=0;entryX=0.75;entryY=0;entryDx=0;entryDy=0;exitX=0.637;exitY=1.133;exitDx=0;exitDy=0;exitPerimeter=0;startArrow=none;startFill=0;endFill=0;" edge="1" parent="1" source="gjqOyfGNY4zWrT8vkuJQ-16" target="gjqOyfGNY4zWrT8vkuJQ-9">
          <mxGeometry width="50" height="50" relative="1" as="geometry">
            <mxPoint x="690" y="902.63" as="sourcePoint" />
            <mxPoint x="380" y="922.63" as="targetPoint" />
          </mxGeometry>
        </mxCell>
        <mxCell id="gjqOyfGNY4zWrT8vkuJQ-23" value="12.Confirmação da criação do usuario" style="text;html=1;align=center;verticalAlign=middle;whiteSpace=wrap;rounded=0;" vertex="1" parent="1">
          <mxGeometry x="270" y="1010.05" width="288" height="30" as="geometry" />
        </mxCell>
        <mxCell id="gjqOyfGNY4zWrT8vkuJQ-24" value="" style="endArrow=open;html=1;rounded=0;exitX=0.36;exitY=0.79;exitDx=0;exitDy=0;exitPerimeter=0;endFill=0;dashed=1;" edge="1" parent="1">
          <mxGeometry width="50" height="50" relative="1" as="geometry">
            <mxPoint x="222.05000000000018" y="1022.9699999999996" as="sourcePoint" />
            <mxPoint x="-2.0499999999999545" y="1021.29" as="targetPoint" />
            <Array as="points" />
          </mxGeometry>
        </mxCell>
        <mxCell id="gjqOyfGNY4zWrT8vkuJQ-25" value="13.Retorno com o login" style="text;html=1;align=center;verticalAlign=middle;whiteSpace=wrap;rounded=0;" vertex="1" parent="1">
          <mxGeometry x="17.950000000000045" y="1014.29" width="180" height="30" as="geometry" />
        </mxCell>
        <mxCell id="gjqOyfGNY4zWrT8vkuJQ-26" value="" style="endArrow=none;dashed=1;html=1;strokeWidth=1;rounded=0;entryX=0.942;entryY=0.931;entryDx=0;entryDy=0;entryPerimeter=0;endFill=0;startArrow=open;startFill=0;" edge="1" parent="1">
          <mxGeometry width="50" height="50" relative="1" as="geometry">
            <mxPoint x="-238.37" y="1032.29" as="sourcePoint" />
            <mxPoint x="-7.369999999999891" y="1032.29" as="targetPoint" />
          </mxGeometry>
        </mxCell>
        <mxCell id="gjqOyfGNY4zWrT8vkuJQ-27" value="&lt;span style=&quot;background-color: transparent; color: light-dark(rgb(0, 0, 0), rgb(255, 255, 255));&quot;&gt;14.Exibir tela anterior ao login&lt;/span&gt;" style="text;html=1;align=center;verticalAlign=middle;whiteSpace=wrap;rounded=0;" vertex="1" parent="1">
          <mxGeometry x="-211.37" y="1004.29" width="170" height="40" as="geometry" />
        </mxCell>
        <mxCell id="gjqOyfGNY4zWrT8vkuJQ-28" value="" style="rounded=0;whiteSpace=wrap;html=1;rotation=90;" vertex="1" parent="1">
          <mxGeometry x="-259.37" y="1050.36" width="508.74" height="10" as="geometry" />
        </mxCell>
        <mxCell id="gjqOyfGNY4zWrT8vkuJQ-30" value="Usuario:User2" style="rounded=1;whiteSpace=wrap;html=1;" vertex="1" parent="1">
          <mxGeometry x="900" y="1363" width="110" height="40" as="geometry" />
        </mxCell>
        <mxCell id="gjqOyfGNY4zWrT8vkuJQ-32" value="" style="endArrow=none;dashed=1;html=1;dashPattern=1 3;strokeWidth=2;rounded=0;exitX=0.5;exitY=0;exitDx=0;exitDy=0;entryX=0.5;entryY=1;entryDx=0;entryDy=0;" edge="1" parent="1" source="gjqOyfGNY4zWrT8vkuJQ-30" target="gjqOyfGNY4zWrT8vkuJQ-21">
          <mxGeometry width="50" height="50" relative="1" as="geometry">
            <mxPoint x="880" y="2124" as="sourcePoint" />
            <mxPoint x="880" y="1230" as="targetPoint" />
          </mxGeometry>
        </mxCell>
        <mxCell id="gjqOyfGNY4zWrT8vkuJQ-35" value="" style="endArrow=open;html=1;rounded=0;dashed=1;entryX=0.5;entryY=0;entryDx=0;entryDy=0;exitX=0.5;exitY=1;exitDx=0;exitDy=0;endFill=0;" edge="1" parent="1" source="gjqOyfGNY4zWrT8vkuJQ-63">
          <mxGeometry width="50" height="50" relative="1" as="geometry">
            <mxPoint x="983" y="1169.9999999999998" as="sourcePoint" />
            <mxPoint x="231.70500000000015" y="1170.99" as="targetPoint" />
            <Array as="points" />
          </mxGeometry>
        </mxCell>
        <mxCell id="gjqOyfGNY4zWrT8vkuJQ-36" value="" style="endArrow=classic;html=1;rounded=0;exitX=0.194;exitY=-0.034;exitDx=0;exitDy=0;exitPerimeter=0;" edge="1" parent="1">
          <mxGeometry width="50" height="50" relative="1" as="geometry">
            <mxPoint x="1" y="1067" as="sourcePoint" />
            <mxPoint x="221" y="1068" as="targetPoint" />
            <Array as="points">
              <mxPoint x="141" y="1068" />
            </Array>
          </mxGeometry>
        </mxCell>
        <mxCell id="gjqOyfGNY4zWrT8vkuJQ-37" value="" style="rounded=0;whiteSpace=wrap;html=1;rotation=90;" vertex="1" parent="1">
          <mxGeometry x="94.07" y="1184.94" width="265.28" height="10" as="geometry" />
        </mxCell>
        <mxCell id="gjqOyfGNY4zWrT8vkuJQ-38" value="10.Pedir confirmação do cacelamento" style="text;html=1;align=center;verticalAlign=middle;whiteSpace=wrap;rounded=0;" vertex="1" parent="1">
          <mxGeometry x="3" y="1178.01" width="220" height="32" as="geometry" />
        </mxCell>
        <mxCell id="gjqOyfGNY4zWrT8vkuJQ-39" value="" style="endArrow=none;html=1;rounded=0;exitX=0.194;exitY=-0.034;exitDx=0;exitDy=0;exitPerimeter=0;startArrow=open;startFill=0;endFill=0;dashed=1;" edge="1" parent="1">
          <mxGeometry width="50" height="50" relative="1" as="geometry">
            <mxPoint x="1" y="1184" as="sourcePoint" />
            <mxPoint x="221" y="1185" as="targetPoint" />
            <Array as="points">
              <mxPoint x="141" y="1185" />
            </Array>
          </mxGeometry>
        </mxCell>
        <mxCell id="gjqOyfGNY4zWrT8vkuJQ-40" value="" style="endArrow=classic;html=1;rounded=0;" edge="1" parent="1">
          <mxGeometry width="50" height="50" relative="1" as="geometry">
            <mxPoint x="-239" y="1198" as="sourcePoint" />
            <mxPoint x="-9" y="1198" as="targetPoint" />
          </mxGeometry>
        </mxCell>
        <mxCell id="gjqOyfGNY4zWrT8vkuJQ-41" value="11.Confirmar()" style="text;html=1;align=center;verticalAlign=middle;whiteSpace=wrap;rounded=0;" vertex="1" parent="1">
          <mxGeometry x="-155" y="1172" width="50" height="31" as="geometry" />
        </mxCell>
        <mxCell id="gjqOyfGNY4zWrT8vkuJQ-42" value="&lt;span style=&quot;background-color: transparent; color: light-dark(rgb(0, 0, 0), rgb(255, 255, 255));&quot;&gt;8.VerificarParticipação(user_id,event_id&lt;/span&gt;&lt;span style=&quot;background-color: transparent; color: light-dark(rgb(0, 0, 0), rgb(255, 255, 255));&quot;&gt;)&lt;/span&gt;" style="text;html=1;align=center;verticalAlign=middle;whiteSpace=wrap;rounded=0;" vertex="1" parent="1">
          <mxGeometry x="596.4099999999999" y="1051" width="60" height="30" as="geometry" />
        </mxCell>
        <mxCell id="gjqOyfGNY4zWrT8vkuJQ-43" value="" style="endArrow=classic;html=1;rounded=0;entryX=0.108;entryY=0.786;entryDx=0;entryDy=0;entryPerimeter=0;" edge="1" parent="1" target="gjqOyfGNY4zWrT8vkuJQ-62">
          <mxGeometry width="50" height="50" relative="1" as="geometry">
            <mxPoint x="231" y="1073" as="sourcePoint" />
            <mxPoint x="436" y="1072" as="targetPoint" />
            <Array as="points">
              <mxPoint x="361" y="1073" />
            </Array>
          </mxGeometry>
        </mxCell>
        <mxCell id="gjqOyfGNY4zWrT8vkuJQ-44" value="alt" style="shape=umlFrame;whiteSpace=wrap;html=1;pointerEvents=0;width=30;height=20;" vertex="1" parent="1">
          <mxGeometry x="-288" y="1081" width="1429" height="81" as="geometry" />
        </mxCell>
        <mxCell id="gjqOyfGNY4zWrT8vkuJQ-45" value="[Participante não participa do evento]" style="text;html=1;align=center;verticalAlign=middle;whiteSpace=wrap;rounded=0;" vertex="1" parent="1">
          <mxGeometry x="-233.37" y="1077" width="203.37" height="30" as="geometry" />
        </mxCell>
        <mxCell id="gjqOyfGNY4zWrT8vkuJQ-46" value="" style="endArrow=open;html=1;rounded=0;dashed=1;exitX=0.878;exitY=1.071;exitDx=0;exitDy=0;endFill=0;exitPerimeter=0;" edge="1" parent="1" source="gjqOyfGNY4zWrT8vkuJQ-62">
          <mxGeometry width="50" height="50" relative="1" as="geometry">
            <mxPoint x="433.9999999999998" y="1107.25" as="sourcePoint" />
            <mxPoint x="231" y="1096" as="targetPoint" />
            <Array as="points" />
          </mxGeometry>
        </mxCell>
        <mxCell id="gjqOyfGNY4zWrT8vkuJQ-47" value="9.Não está participando" style="text;html=1;align=center;verticalAlign=middle;whiteSpace=wrap;rounded=0;" vertex="1" parent="1">
          <mxGeometry x="499" y="1088.21" width="225" height="30" as="geometry" />
        </mxCell>
        <mxCell id="gjqOyfGNY4zWrT8vkuJQ-48" value="" style="endArrow=open;html=1;rounded=0;dashed=1;entryX=0.737;entryY=0;entryDx=0;entryDy=0;exitX=0.221;exitY=0.741;exitDx=0;exitDy=0;endFill=0;exitPerimeter=0;entryPerimeter=0;" edge="1" parent="1" source="gjqOyfGNY4zWrT8vkuJQ-37">
          <mxGeometry width="50" height="50" relative="1" as="geometry">
            <mxPoint x="213.99999999999977" y="1119.25" as="sourcePoint" />
            <mxPoint x="1" y="1117" as="targetPoint" />
            <Array as="points" />
          </mxGeometry>
        </mxCell>
        <mxCell id="gjqOyfGNY4zWrT8vkuJQ-49" value="10.Cancelamento negado, não está participando" style="text;html=1;align=center;verticalAlign=middle;whiteSpace=wrap;rounded=0;" vertex="1" parent="1">
          <mxGeometry x="35" y="1118" width="165" height="30" as="geometry" />
        </mxCell>
        <mxCell id="gjqOyfGNY4zWrT8vkuJQ-50" value="" style="endArrow=open;html=1;rounded=0;dashed=1;entryX=0.737;entryY=0;entryDx=0;entryDy=0;exitX=0.381;exitY=0.57;exitDx=0;exitDy=0;endFill=0;exitPerimeter=0;entryPerimeter=0;" edge="1" parent="1">
          <mxGeometry width="50" height="50" relative="1" as="geometry">
            <mxPoint x="-8.36999999999989" y="1122.65" as="sourcePoint" />
            <mxPoint x="-233.3699999999999" y="1121.65" as="targetPoint" />
            <Array as="points" />
          </mxGeometry>
        </mxCell>
        <mxCell id="gjqOyfGNY4zWrT8vkuJQ-51" value="11.Cancelamento negado, não está participando" style="text;html=1;align=center;verticalAlign=middle;whiteSpace=wrap;rounded=0;" vertex="1" parent="1">
          <mxGeometry x="-199.37" y="1122.65" width="159.37" height="30" as="geometry" />
        </mxCell>
        <mxCell id="gjqOyfGNY4zWrT8vkuJQ-52" value="9.Está participando" style="text;html=1;align=center;verticalAlign=middle;whiteSpace=wrap;rounded=0;" vertex="1" parent="1">
          <mxGeometry x="531" y="1165.9950000000001" width="140" height="30" as="geometry" />
        </mxCell>
        <mxCell id="gjqOyfGNY4zWrT8vkuJQ-53" value="12.Confirmação realizada" style="text;html=1;align=center;verticalAlign=middle;whiteSpace=wrap;rounded=0;" vertex="1" parent="1">
          <mxGeometry x="36" y="1202" width="156" height="32" as="geometry" />
        </mxCell>
        <mxCell id="gjqOyfGNY4zWrT8vkuJQ-54" value="" style="endArrow=open;html=1;rounded=0;exitX=0.194;exitY=-0.034;exitDx=0;exitDy=0;exitPerimeter=0;startArrow=none;startFill=0;endFill=0;dashed=1;" edge="1" parent="1">
          <mxGeometry width="50" height="50" relative="1" as="geometry">
            <mxPoint x="1" y="1208.99" as="sourcePoint" />
            <mxPoint x="221" y="1209.99" as="targetPoint" />
            <Array as="points">
              <mxPoint x="141" y="1209.99" />
            </Array>
          </mxGeometry>
        </mxCell>
        <mxCell id="gjqOyfGNY4zWrT8vkuJQ-55" value="&lt;span style=&quot;background-color: transparent; color: light-dark(rgb(0, 0, 0), rgb(255, 255, 255));&quot;&gt;13.CancelarParticipação(user_id,event_id&lt;/span&gt;&lt;span style=&quot;background-color: transparent; color: light-dark(rgb(0, 0, 0), rgb(255, 255, 255));&quot;&gt;)&lt;/span&gt;" style="text;html=1;align=center;verticalAlign=middle;whiteSpace=wrap;rounded=0;" vertex="1" parent="1">
          <mxGeometry x="499" y="1232" width="60" height="30" as="geometry" />
        </mxCell>
        <mxCell id="gjqOyfGNY4zWrT8vkuJQ-56" value="" style="endArrow=classic;html=1;rounded=0;entryX=0.25;entryY=1;entryDx=0;entryDy=0;" edge="1" parent="1" target="gjqOyfGNY4zWrT8vkuJQ-57">
          <mxGeometry width="50" height="50" relative="1" as="geometry">
            <mxPoint x="230" y="1253" as="sourcePoint" />
            <mxPoint x="981" y="1252" as="targetPoint" />
            <Array as="points">
              <mxPoint x="360" y="1253" />
            </Array>
          </mxGeometry>
        </mxCell>
        <mxCell id="gjqOyfGNY4zWrT8vkuJQ-57" value="&lt;span style=&quot;color: rgba(0, 0, 0, 0); font-family: monospace; font-size: 0px; text-align: start; text-wrap-mode: nowrap;&quot;&gt;%3CmxGraphModel%3E%3Croot%3E%3CmxCell%20id%3D%220%22%2F%3E%3CmxCell%20id%3D%221%22%20parent%3D%220%22%2F%3E%3CmxCell%20id%3D%222%22%20value%3D%2215.Confirma%C3%A7%C3%A3o%20da%20participa%C3%A7%C3%A3o%22%20style%3D%22text%3Bhtml%3D1%3Balign%3Dcenter%3BverticalAlign%3Dmiddle%3BwhiteSpace%3Dwrap%3Brounded%3D0%3B%22%20vertex%3D%221%22%20parent%3D%221%22%3E%3CmxGeometry%20x%3D%2226%22%20y%3D%22730%22%20width%3D%22174%22%20height%3D%2232%22%20as%3D%22geometry%22%2F%3E%3C%2FmxCell%3E%3CmxCell%20id%3D%223%22%20value%3D%22%22%20style%3D%22endArrow%3Dnone%3Bhtml%3D1%3Brounded%3D0%3BexitX%3D0.194%3BexitY%3D-0.034%3BexitDx%3D0%3BexitDy%3D0%3BexitPerimeter%3D0%3BstartArrow%3Dopen%3BstartFill%3D0%3BendFill%3D0%3Bdashed%3D1%3B%22%20edge%3D%221%22%20parent%3D%221%22%3E%3CmxGeometry%20width%3D%2250%22%20height%3D%2250%22%20relative%3D%221%22%20as%3D%22geometry%22%3E%3CmxPoint%20y%3D%22736.99%22%20as%3D%22sourcePoint%22%2F%3E%3CmxPoint%20x%3D%22220%22%20y%3D%22737.99%22%20as%3D%22targetPoint%22%2F%3E%3CArray%20as%3D%22points%22%3E%3CmxPoint%20x%3D%22140%22%20y%3D%22737.99%22%2F%3E%3C%2FArray%3E%3C%2FmxGeometry%3E%3C%2FmxCell%3E%3C%2Froot%3E%3C%2FmxGraphModel%3E&lt;/span&gt;" style="rounded=0;whiteSpace=wrap;html=1;rotation=90;" vertex="1" parent="1">
          <mxGeometry x="1107.165" y="1261.995" width="40.83" height="10" as="geometry" />
        </mxCell>
        <mxCell id="gjqOyfGNY4zWrT8vkuJQ-58" value="14.confirmação do cancelamento da participação" style="text;html=1;align=center;verticalAlign=middle;whiteSpace=wrap;rounded=0;" vertex="1" parent="1">
          <mxGeometry x="330" y="1266" width="266" height="22" as="geometry" />
        </mxCell>
        <mxCell id="gjqOyfGNY4zWrT8vkuJQ-59" value="" style="endArrow=none;html=1;rounded=0;exitX=0.789;exitY=0.132;exitDx=0;exitDy=0;exitPerimeter=0;startArrow=open;startFill=0;endFill=0;dashed=1;entryX=0.5;entryY=1;entryDx=0;entryDy=0;" edge="1" parent="1" source="gjqOyfGNY4zWrT8vkuJQ-37" target="gjqOyfGNY4zWrT8vkuJQ-57">
          <mxGeometry width="50" height="50" relative="1" as="geometry">
            <mxPoint x="411" y="1268.99" as="sourcePoint" />
            <mxPoint x="631" y="1269.99" as="targetPoint" />
            <Array as="points" />
          </mxGeometry>
        </mxCell>
        <mxCell id="gjqOyfGNY4zWrT8vkuJQ-60" value="" style="endArrow=none;html=1;rounded=0;exitX=0.194;exitY=-0.034;exitDx=0;exitDy=0;exitPerimeter=0;startArrow=open;startFill=0;endFill=0;dashed=1;" edge="1" parent="1">
          <mxGeometry width="50" height="50" relative="1" as="geometry">
            <mxPoint x="1" y="1268.99" as="sourcePoint" />
            <mxPoint x="221" y="1269.99" as="targetPoint" />
            <Array as="points">
              <mxPoint x="141" y="1269.99" />
            </Array>
          </mxGeometry>
        </mxCell>
        <mxCell id="gjqOyfGNY4zWrT8vkuJQ-61" value="" style="endArrow=none;html=1;rounded=0;startArrow=open;startFill=0;endFill=0;dashed=1;" edge="1" parent="1">
          <mxGeometry width="50" height="50" relative="1" as="geometry">
            <mxPoint x="-239" y="1278" as="sourcePoint" />
            <mxPoint x="-9" y="1278" as="targetPoint" />
            <Array as="points">
              <mxPoint x="-159" y="1278" />
              <mxPoint x="-86" y="1277.99" />
            </Array>
          </mxGeometry>
        </mxCell>
        <mxCell id="gjqOyfGNY4zWrT8vkuJQ-62" value="&lt;span style=&quot;color: rgba(0, 0, 0, 0); font-family: monospace; font-size: 0px; text-align: start; text-wrap-mode: nowrap;&quot;&gt;%3CmxGraphModel%3E%3Croot%3E%3CmxCell%20id%3D%220%22%2F%3E%3CmxCell%20id%3D%221%22%20parent%3D%220%22%2F%3E%3CmxCell%20id%3D%222%22%20value%3D%2215.Confirma%C3%A7%C3%A3o%20da%20participa%C3%A7%C3%A3o%22%20style%3D%22text%3Bhtml%3D1%3Balign%3Dcenter%3BverticalAlign%3Dmiddle%3BwhiteSpace%3Dwrap%3Brounded%3D0%3B%22%20vertex%3D%221%22%20parent%3D%221%22%3E%3CmxGeometry%20x%3D%2226%22%20y%3D%22730%22%20width%3D%22174%22%20height%3D%2232%22%20as%3D%22geometry%22%2F%3E%3C%2FmxCell%3E%3CmxCell%20id%3D%223%22%20value%3D%22%22%20style%3D%22endArrow%3Dnone%3Bhtml%3D1%3Brounded%3D0%3BexitX%3D0.194%3BexitY%3D-0.034%3BexitDx%3D0%3BexitDy%3D0%3BexitPerimeter%3D0%3BstartArrow%3Dopen%3BstartFill%3D0%3BendFill%3D0%3Bdashed%3D1%3B%22%20edge%3D%221%22%20parent%3D%221%22%3E%3CmxGeometry%20width%3D%2250%22%20height%3D%2250%22%20relative%3D%221%22%20as%3D%22geometry%22%3E%3CmxPoint%20y%3D%22736.99%22%20as%3D%22sourcePoint%22%2F%3E%3CmxPoint%20x%3D%22220%22%20y%3D%22737.99%22%20as%3D%22targetPoint%22%2F%3E%3CArray%20as%3D%22points%22%3E%3CmxPoint%20x%3D%22140%22%20y%3D%22737.99%22%2F%3E%3C%2FArray%3E%3C%2FmxGeometry%3E%3C%2FmxCell%3E%3C%2Froot%3E%3C%2FmxGraphModel%3E&lt;/span&gt;" style="rounded=0;whiteSpace=wrap;html=1;rotation=90;" vertex="1" parent="1">
          <mxGeometry x="1109.79" y="1078.21" width="34.41" height="10" as="geometry" />
        </mxCell>
        <mxCell id="gjqOyfGNY4zWrT8vkuJQ-63" value="&lt;span style=&quot;color: rgba(0, 0, 0, 0); font-family: monospace; font-size: 0px; text-align: start; text-wrap-mode: nowrap;&quot;&gt;%3CmxGraphModel%3E%3Croot%3E%3CmxCell%20id%3D%220%22%2F%3E%3CmxCell%20id%3D%221%22%20parent%3D%220%22%2F%3E%3CmxCell%20id%3D%222%22%20value%3D%22%26lt%3Bspan%20style%3D%26quot%3Bcolor%3A%20rgba(0%2C%200%2C%200%2C%200)%3B%20font-family%3A%20monospace%3B%20font-size%3A%200px%3B%20text-align%3A%20start%3B%20text-wrap-mode%3A%20nowrap%3B%26quot%3B%26gt%3B%253CmxGraphModel%253E%253Croot%253E%253CmxCell%2520id%253D%25220%2522%252F%253E%253CmxCell%2520id%253D%25221%2522%2520parent%253D%25220%2522%252F%253E%253CmxCell%2520id%253D%25222%2522%2520value%253D%252215.Confirma%25C3%25A7%25C3%25A3o%2520da%2520participa%25C3%25A7%25C3%25A3o%2522%2520style%253D%2522text%253Bhtml%253D1%253Balign%253Dcenter%253BverticalAlign%253Dmiddle%253BwhiteSpace%253Dwrap%253Brounded%253D0%253B%2522%2520vertex%253D%25221%2522%2520parent%253D%25221%2522%253E%253CmxGeometry%2520x%253D%252226%2522%2520y%253D%2522730%2522%2520width%253D%2522174%2522%2520height%253D%252232%2522%2520as%253D%2522geometry%2522%252F%253E%253C%252FmxCell%253E%253CmxCell%2520id%253D%25223%2522%2520value%253D%2522%2522%2520style%253D%2522endArrow%253Dnone%253Bhtml%253D1%253Brounded%253D0%253BexitX%253D0.194%253BexitY%253D-0.034%253BexitDx%253D0%253BexitDy%253D0%253BexitPerimeter%253D0%253BstartArrow%253Dopen%253BstartFill%253D0%253BendFill%253D0%253Bdashed%253D1%253B%2522%2520edge%253D%25221%2522%2520parent%253D%25221%2522%253E%253CmxGeometry%2520width%253D%252250%2522%2520height%253D%252250%2522%2520relative%253D%25221%2522%2520as%253D%2522geometry%2522%253E%253CmxPoint%2520y%253D%2522736.99%2522%2520as%253D%2522sourcePoint%2522%252F%253E%253CmxPoint%2520x%253D%2522220%2522%2520y%253D%2522737.99%2522%2520as%253D%2522targetPoint%2522%252F%253E%253CArray%2520as%253D%2522points%2522%253E%253CmxPoint%2520x%253D%2522140%2522%2520y%253D%2522737.99%2522%252F%253E%253C%252FArray%253E%253C%252FmxGeometry%253E%253C%252FmxCell%253E%253C%252Froot%253E%253C%252FmxGraphModel%253E%26lt%3B%2Fspan%26gt%3B%22%20style%3D%22rounded%3D0%3BwhiteSpace%3Dwrap%3Bhtml%3D1%3Brotation%3D90%3B%22%20vertex%3D%221%22%20parent%3D%221%22%3E%3CmxGeometry%20x%3D%22966.1650000000001%22%20y%3D%22729.995%22%20width%3D%2240.83%22%20height%3D%2210%22%20as%3D%22geometry%22%2F%3E%3C%2FmxCell%3E%3C%2Froot%3E%3C%2FmxGraphModel%3E&lt;/span&gt;" style="rounded=0;whiteSpace=wrap;html=1;rotation=90;" vertex="1" parent="1">
          <mxGeometry x="1112" y="1170" width="32" height="10" as="geometry" />
        </mxCell>
        <mxCell id="gjqOyfGNY4zWrT8vkuJQ-64" style="edgeStyle=orthogonalEdgeStyle;rounded=0;orthogonalLoop=1;jettySize=auto;html=1;exitX=0.5;exitY=1;exitDx=0;exitDy=0;" edge="1" parent="1" source="gjqOyfGNY4zWrT8vkuJQ-52" target="gjqOyfGNY4zWrT8vkuJQ-52">
          <mxGeometry relative="1" as="geometry" />
        </mxCell>
        <mxCell id="gjqOyfGNY4zWrT8vkuJQ-65" value="6.CancelarParticipação(event_id)" style="text;html=1;align=center;verticalAlign=middle;whiteSpace=wrap;rounded=0;" vertex="1" parent="1">
          <mxGeometry x="-159" y="829" width="60" height="30" as="geometry" />
        </mxCell>
        <mxCell id="gjqOyfGNY4zWrT8vkuJQ-66" value="" style="endArrow=classic;html=1;rounded=0;" edge="1" parent="1">
          <mxGeometry width="50" height="50" relative="1" as="geometry">
            <mxPoint x="-241" y="850" as="sourcePoint" />
            <mxPoint x="-11" y="850" as="targetPoint" />
          </mxGeometry>
        </mxCell>
        <mxCell id="gjqOyfGNY4zWrT8vkuJQ-68" value="7.CancelarParticipação(user_id)" style="text;html=1;align=center;verticalAlign=middle;whiteSpace=wrap;rounded=0;" vertex="1" parent="1">
          <mxGeometry x="86" y="1050" width="60" height="20" as="geometry" />
        </mxCell>
        <mxCell id="gjqOyfGNY4zWrT8vkuJQ-71" value="15.Confirmação do cancelamento" style="text;html=1;align=center;verticalAlign=middle;whiteSpace=wrap;rounded=0;" vertex="1" parent="1">
          <mxGeometry x="13.5" y="1266" width="193" height="32" as="geometry" />
        </mxCell>
        <mxCell id="gjqOyfGNY4zWrT8vkuJQ-72" value="16.Exibir a confirmação do cancelamento" style="text;html=1;align=center;verticalAlign=middle;whiteSpace=wrap;rounded=0;" vertex="1" parent="1">
          <mxGeometry x="-241.37" y="1272" width="230" height="32" as="geometry" />
        </mxCell>
        <mxCell id="gjqOyfGNY4zWrT8vkuJQ-75" value="" style="rounded=0;whiteSpace=wrap;html=1;rotation=90;" vertex="1" parent="1">
          <mxGeometry x="431" y="757" width="16" height="10" as="geometry" />
        </mxCell>
        <mxCell id="gjqOyfGNY4zWrT8vkuJQ-80" value="&lt;span style=&quot;background-color: transparent; color: light-dark(rgb(0, 0, 0), rgb(255, 255, 255));&quot;&gt;17.AdcParticipante(&lt;/span&gt;&lt;span style=&quot;background-color: transparent; color: light-dark(rgb(0, 0, 0), rgb(255, 255, 255));&quot;&gt;)&lt;/span&gt;" style="text;html=1;align=center;verticalAlign=middle;whiteSpace=wrap;rounded=0;" vertex="1" parent="1">
          <mxGeometry x="304" y="737" width="60" height="30" as="geometry" />
        </mxCell>
        <mxCell id="gjqOyfGNY4zWrT8vkuJQ-81" value="" style="endArrow=classic;html=1;rounded=0;" edge="1" parent="1">
          <mxGeometry width="50" height="50" relative="1" as="geometry">
            <mxPoint x="229" y="758" as="sourcePoint" />
            <mxPoint x="434" y="757" as="targetPoint" />
            <Array as="points">
              <mxPoint x="359" y="758" />
            </Array>
          </mxGeometry>
        </mxCell>
        <mxCell id="gjqOyfGNY4zWrT8vkuJQ-82" value="" style="rounded=0;whiteSpace=wrap;html=1;rotation=90;" vertex="1" parent="1">
          <mxGeometry x="431" y="1310" width="16" height="10" as="geometry" />
        </mxCell>
        <mxCell id="gjqOyfGNY4zWrT8vkuJQ-83" value="&lt;span style=&quot;background-color: transparent; color: light-dark(rgb(0, 0, 0), rgb(255, 255, 255));&quot;&gt;17.TirarParticipante(&lt;/span&gt;&lt;span style=&quot;background-color: transparent; color: light-dark(rgb(0, 0, 0), rgb(255, 255, 255));&quot;&gt;)&lt;/span&gt;" style="text;html=1;align=center;verticalAlign=middle;whiteSpace=wrap;rounded=0;" vertex="1" parent="1">
          <mxGeometry x="304" y="1290" width="60" height="30" as="geometry" />
        </mxCell>
        <mxCell id="gjqOyfGNY4zWrT8vkuJQ-84" value="" style="endArrow=classic;html=1;rounded=0;" edge="1" parent="1">
          <mxGeometry width="50" height="50" relative="1" as="geometry">
            <mxPoint x="229" y="1311" as="sourcePoint" />
            <mxPoint x="434" y="1310" as="targetPoint" />
            <Array as="points">
              <mxPoint x="359" y="1311" />
            </Array>
          </mxGeometry>
        </mxCell>
      </root>
    </mxGraphModel>
  </diagram>
</mxfile>
